<svg viewBox="0 0 330 200" xmlns="http://www.w3.org/2000/svg"><g><g><g><g><g><line x1="53.1875" y1="176" x2="48.1875" y2="176" style="visibility: inherit;" fill="rgb(0, 0, 0)" stroke="rgb(204, 204, 204)" stroke-width="1px"></line><line x1="53.1875" y1="156.44444444444446" x2="48.1875" y2="156.44444444444446" style="visibility: inherit;" fill="rgb(0, 0, 0)" stroke="rgb(204, 204, 204)" stroke-width="1px"></line><line x1="53.1875" y1="136.8888888888889" x2="48.1875" y2="136.8888888888889" style="visibility: inherit;" fill="rgb(0, 0, 0)" stroke="rgb(204, 204, 204)" stroke-width="1px"></line><line x1="53.1875" y1="117.33333333333334" x2="48.1875" y2="117.33333333333334" style="visibility: inherit;" fill="rgb(0, 0, 0)" stroke="rgb(204, 204, 204)" stroke-width="1px"></line><line x1="53.1875" y1="97.77777777777776" x2="48.1875" y2="97.77777777777776" style="visibility: inherit;" fill="rgb(0, 0, 0)" stroke="rgb(204, 204, 204)" stroke-width="1px"></line><line x1="53.1875" y1="78.22222222222224" x2="48.1875" y2="78.22222222222224" style="visibility: inherit;" fill="rgb(0, 0, 0)" stroke="rgb(204, 204, 204)" stroke-width="1px"></line><line x1="53.1875" y1="58.66666666666667" x2="48.1875" y2="58.66666666666667" style="visibility: inherit;" fill="rgb(0, 0, 0)" stroke="rgb(204, 204, 204)" stroke-width="1px"></line><line x1="53.1875" y1="39.111111111111086" x2="48.1875" y2="39.111111111111086" style="visibility: inherit;" fill="rgb(0, 0, 0)" stroke="rgb(204, 204, 204)" stroke-width="1px"></line><line x1="53.1875" y1="19.555555555555564" x2="48.1875" y2="19.555555555555564" style="visibility: inherit;" fill="rgb(0, 0, 0)" stroke="rgb(204, 204, 204)" stroke-width="1px"></line><line x1="53.1875" y1="0" x2="48.1875" y2="0" style="visibility: inherit;" fill="rgb(0, 0, 0)" stroke="rgb(204, 204, 204)" stroke-width="1px"></line></g><g transform="translate(43.1875, 0)"><text x="0" y="176" dx="0em" dy="0.3em" style="text-anchor: end; visibility: hidden; font-family: Roboto, sans-serif; font-size: 12px; font-weight: 200;" fill="rgb(33, 33, 33)" stroke="none" stroke-width="1px">0.1</text><text x="0" y="156.44444444444446" dx="0em" dy="0.3em" style="text-anchor: end; visibility: inherit; font-family: Roboto, sans-serif; font-size: 12px; font-weight: 200;" fill="rgb(33, 33, 33)" stroke="none" stroke-width="1px">0.11</text><text x="0" y="136.8888888888889" dx="0em" dy="0.3em" style="text-anchor: end; visibility: hidden; font-family: Roboto, sans-serif; font-size: 12px; font-weight: 200;" fill="rgb(33, 33, 33)" stroke="none" stroke-width="1px">0.12</text><text x="0" y="117.33333333333334" dx="0em" dy="0.3em" style="text-anchor: end; visibility: inherit; font-family: Roboto, sans-serif; font-size: 12px; font-weight: 200;" fill="rgb(33, 33, 33)" stroke="none" stroke-width="1px">0.13</text><text x="0" y="97.77777777777776" dx="0em" dy="0.3em" style="text-anchor: end; visibility: hidden; font-family: Roboto, sans-serif; font-size: 12px; font-weight: 200;" fill="rgb(33, 33, 33)" stroke="none" stroke-width="1px">0.14</text><text x="0" y="78.22222222222224" dx="0em" dy="0.3em" style="text-anchor: end; visibility: inherit; font-family: Roboto, sans-serif; font-size: 12px; font-weight: 200;" fill="rgb(33, 33, 33)" stroke="none" stroke-width="1px">0.15</text><text x="0" y="58.66666666666667" dx="0em" dy="0.3em" style="text-anchor: end; visibility: hidden; font-family: Roboto, sans-serif; font-size: 12px; font-weight: 200;" fill="rgb(33, 33, 33)" stroke="none" stroke-width="1px">0.16</text><text x="0" y="39.111111111111086" dx="0em" dy="0.3em" style="text-anchor: end; visibility: inherit; font-family: Roboto, sans-serif; font-size: 12px; font-weight: 200;" fill="rgb(33, 33, 33)" stroke="none" stroke-width="1px">0.17</text><text x="0" y="19.555555555555564" dx="0em" dy="0.3em" style="text-anchor: end; visibility: hidden; font-family: Roboto, sans-serif; font-size: 12px; font-weight: 200;" fill="rgb(33, 33, 33)" stroke="none" stroke-width="1px">0.18</text><text x="0" y="0" dx="0em" dy="0.3em" style="text-anchor: end; visibility: hidden; font-family: Roboto, sans-serif; font-size: 12px; font-weight: 200;" fill="rgb(33, 33, 33)" stroke="none" stroke-width="1px">0.19</text></g><line x1="53.1875" y1="0" x2="53.1875" y2="176" fill="rgb(0, 0, 0)" stroke="rgb(204, 204, 204)" stroke-width="1px"></line></g></g><g transform="translate(53, 0)" clip-path="url(#clip_0)"><clipPath id="clip_0"><rect width="276" height="176"></rect></clipPath><g><g><g><line x1="0" y1="0" x2="0" y2="176" fill="rgb(0, 0, 0)" stroke="rgb(66, 66, 66)" stroke-width="1px" opacity="0.25"></line><line x1="23.067708333333332" y1="0" x2="23.067708333333332" y2="176" fill="rgb(0, 0, 0)" stroke="rgb(66, 66, 66)" stroke-width="1px" opacity="0.25"></line><line x1="46.135416666666664" y1="0" x2="46.135416666666664" y2="176" fill="rgb(0, 0, 0)" stroke="rgb(66, 66, 66)" stroke-width="1px" opacity="0.25"></line><line x1="69.203125" y1="0" x2="69.203125" y2="176" fill="rgb(0, 0, 0)" stroke="rgb(66, 66, 66)" stroke-width="1px" opacity="0.25"></line><line x1="92.27083333333333" y1="0" x2="92.27083333333333" y2="176" fill="rgb(0, 0, 0)" stroke="rgb(66, 66, 66)" stroke-width="1px" opacity="0.25"></line><line x1="115.33854166666667" y1="0" x2="115.33854166666667" y2="176" fill="rgb(0, 0, 0)" stroke="rgb(66, 66, 66)" stroke-width="1px" opacity="0.25"></line><line x1="138.40625" y1="0" x2="138.40625" y2="176" fill="rgb(0, 0, 0)" stroke="rgb(66, 66, 66)" stroke-width="1px" opacity="0.25"></line><line x1="161.47395833333334" y1="0" x2="161.47395833333334" y2="176" fill="rgb(0, 0, 0)" stroke="rgb(66, 66, 66)" stroke-width="1px" opacity="0.25"></line><line x1="184.54166666666666" y1="0" x2="184.54166666666666" y2="176" fill="rgb(0, 0, 0)" stroke="rgb(66, 66, 66)" stroke-width="1px" opacity="0.25"></line><line x1="207.609375" y1="0" x2="207.609375" y2="176" fill="rgb(0, 0, 0)" stroke="rgb(66, 66, 66)" stroke-width="1px" opacity="0.25"></line><line x1="230.67708333333334" y1="0" x2="230.67708333333334" y2="176" fill="rgb(0, 0, 0)" stroke="rgb(66, 66, 66)" stroke-width="1px" opacity="0.25"></line><line x1="253.74479166666666" y1="0" x2="253.74479166666666" y2="176" fill="rgb(0, 0, 0)" stroke="rgb(66, 66, 66)" stroke-width="1px" opacity="0.25"></line><line x1="276.8125" y1="0" x2="276.8125" y2="176" fill="rgb(0, 0, 0)" stroke="rgb(66, 66, 66)" stroke-width="1px" opacity="0.25"></line></g><g><line x1="0" y1="176" x2="276.8125" y2="176" fill="rgb(0, 0, 0)" stroke="rgb(66, 66, 66)" stroke-width="1px" opacity="0.25"></line><line x1="0" y1="156.44444444444446" x2="276.8125" y2="156.44444444444446" fill="rgb(0, 0, 0)" stroke="rgb(66, 66, 66)" stroke-width="1px" opacity="0.25"></line><line x1="0" y1="136.8888888888889" x2="276.8125" y2="136.8888888888889" fill="rgb(0, 0, 0)" stroke="rgb(66, 66, 66)" stroke-width="1px" opacity="0.25"></line><line x1="0" y1="117.33333333333334" x2="276.8125" y2="117.33333333333334" fill="rgb(0, 0, 0)" stroke="rgb(66, 66, 66)" stroke-width="1px" opacity="0.25"></line><line x1="0" y1="97.77777777777776" x2="276.8125" y2="97.77777777777776" fill="rgb(0, 0, 0)" stroke="rgb(66, 66, 66)" stroke-width="1px" opacity="0.25"></line><line x1="0" y1="78.22222222222224" x2="276.8125" y2="78.22222222222224" fill="rgb(0, 0, 0)" stroke="rgb(66, 66, 66)" stroke-width="1px" opacity="0.25"></line><line x1="0" y1="58.66666666666667" x2="276.8125" y2="58.66666666666667" fill="rgb(0, 0, 0)" stroke="rgb(66, 66, 66)" stroke-width="1px" opacity="0.25"></line><line x1="0" y1="39.111111111111086" x2="276.8125" y2="39.111111111111086" fill="rgb(0, 0, 0)" stroke="rgb(66, 66, 66)" stroke-width="1px" opacity="0.25"></line><line x1="0" y1="19.555555555555564" x2="276.8125" y2="19.555555555555564" fill="rgb(0, 0, 0)" stroke="rgb(66, 66, 66)" stroke-width="1px" opacity="0.25"></line><line x1="0" y1="0" x2="276.8125" y2="0" fill="rgb(0, 0, 0)" stroke="rgb(66, 66, 66)" stroke-width="1px" opacity="0.25"></line></g></g></g><g><g><line x1="0" y1="371.55555555555554" x2="276.8125" y2="371.55555555555554" fill="rgb(0, 0, 0)" stroke="rgb(153, 153, 153)" stroke-width="1.5px"></line></g></g><g><g><line x1="23.067708333333332" y1="0" x2="23.067708333333332" y2="176" fill="rgb(0, 0, 0)" stroke="rgb(153, 153, 153)" stroke-width="1.5px"></line></g></g><g><g><g><g><g><path stroke="rgb(255, 112, 67)" stroke-width="2px" d="M23.067708333333332,3.364077568054199L24.221093749999998,34.47373843193054L25.374479166666664,45.40314108011674L26.527864583333336,44.13830872376761L27.681250000000002,46.18841749535872L28.834635416666668,36.9176053030848L29.988020833333334,33.22614296236415L31.14140625,21.543928001560996L32.29479166666667,17.25697241494178L33.448177083333334,14.5238485989209L34.6015625,17.21381347638941L35.75494791666667,14.588176410299289L36.90833333333333,16.014512494164123L38.061718750000004,5.74657684535164L39.21510416666666,4.959410201445236L40.368489583333336,3.8497695210927123L41.521875,4.221059025101059L42.67526041666667,0.17823528850014725L43.82864583333333,4.472453920391912L44.98203125,3.5388870059672346L46.135416666666664,2.1176613777864013L47.28880208333334,8.289188833463598L48.442187499999996,11.024024916961832L49.59557291666667,16.965852762619512L50.74895833333333,18.555020732913647L51.90234375,18.764921596018553L53.05572916666667,13.91841056574877L54.20911458333333,12.876706913937815L55.362500000000004,14.509270429958672L56.51588541666666,16.51604171739423L57.669270833333336,8.77307072646536L58.82265625,15.015014214257024L59.97604166666667,12.815971136151287L61.12942708333333,13.774784354059426L62.2828125,9.47750638417056L63.436197916666664,15.486199182938062L64.58958333333334,16.25036497483267L65.74296875,16.699085046610826L66.89635416666667,18.315776248921296L68.04973958333333,21.898312884811205L69.203125,25.308468332919272L70.35651041666667,23.70165835934342L71.50989583333335,28.24198767743946L72.66328125,31.449921729605137L73.81666666666666,33.76155710124935L74.97005208333333,35.61362515509802L76.12343750000001,33.35561198092735L77.27682291666667,33.39289413218792L78.43020833333333,27.25079105483225L79.58359374999999,24.14768909854535L80.73697916666667,22.190866334551703L81.89036458333334,24.75084843436482L83.04375,19.49139002679623L84.19713541666665,27.152337822305974L85.35052083333333,33.030835515720746L86.50390625,36.085107703883494L87.65729166666667,30.62517571309496L88.81067708333335,28.578367078789874L89.9640625,28.55253036554646L91.11744791666666,24.63303112826331L92.27083333333333,28.14785278543792L93.42421875000001,29.525423809120838L94.57760416666667,28.30105483784064L95.73098958333333,40.45438922662482L96.88437499999999,40.061040077587315L98.03776041666667,49.07994497788109L99.19114583333334,65.17538181725439L100.34453125,61.36386870149091L101.49791666666665,65.26619058531509L102.65130208333333,55.6890940475052L103.8046875,44.53861596761986L104.95807291666667,48.45774290244417L106.11145833333335,38.72414156564453L107.26484375,32.53374069195021L108.41822916666666,32.29313382794413L109.57161458333333,40.45554851135253L110.72500000000001,43.486344090942396L111.87838541666667,38.71333079911567L113.03177083333333,38.034828313453765L114.18515624999999,41.3533636221868L115.33854166666667,47.93397251901523L116.49192708333334,51.61738487961388L117.6453125,48.23993288937041L118.79869791666665,47.704080083082395L119.95208333333333,50.01290071030409L121.10546875,46.458826640036094L122.25885416666667,52.01407484008718L123.41223958333335,57.00806665562566L124.565625,62.883545166443994L125.71901041666666,70.00182357203438L126.87239583333333,69.58508928414405L128.02578125,59.32049987989399L129.17916666666667,64.87674511836607L130.33255208333333,69.19861965199296L131.4859375,73.6229749595986L132.63932291666669,72.37902263987588L133.79270833333334,72.0636791902759L134.94609375,70.84640055141054L136.09947916666667,69.9743544520079L137.25286458333335,65.03376351959344L138.40625,65.94720343781944L139.55963541666665,65.62163707700105L140.71302083333333,64.98110725467771L141.86640624999998,87.79726844487479L143.0197916666667,98.00675750382811L144.17317708333334,98.96091989773691L145.3265625,88.90834951724186L146.47994791666667,89.27533252698196L147.63333333333333,89.75761958556583L148.78671875,82.18848021386393L149.94010416666666,89.81727959051724L151.0934895833333,77.4941003508137L152.24687500000002,76.70505290085009L153.40026041666667,68.9434418543745L154.55364583333335,70.39491710915246L155.70703125,71.62812962577522L156.86041666666665,70.10284963317181L158.01380208333333,87.61013689544941L159.16718749999998,95.42229513470619L160.3205729166667,108.56641099009157L161.47395833333334,100.54881897395133L162.62734375,91.89041360048952L163.78072916666667,84.98094475961827L164.93411458333333,92.19404272653918L166.0875,99.80893395196352L167.24088541666666,92.82620560636691L168.3942708333333,91.93162038564361L169.54765625000002,94.03197371148867L170.70104166666667,98.13597470167889L171.85442708333335,101.47802011356919L173.0078125,109.20901046969857L174.16119791666665,96.15629655586699L175.31458333333333,101.24023708913272L176.46796874999998,109.59265655605122L177.6213541666667,121.14850855731514L178.77473958333334,118.52274338919051L179.928125,124.4469128851514L181.08151041666667,124.64172434038446L182.23489583333333,112.54182069635308L183.38828125,108.74228258809997L184.54166666666666,110.29801953827933L185.6950520833333,114.98035226726559L186.84843750000002,120.96501477968445L188.00182291666667,103.36678916328864L189.15520833333335,117.44363762472962L190.30859375,116.25391942515239L191.46197916666665,115.96205972054824L192.61536458333333,115.11073158699475L193.76874999999998,120.77068384135022L194.9221354166667,133.72030170546526L196.07552083333334,133.37020954958533L197.22890625,136.19843559082835L198.38229166666667,142.9250135326044L199.53567708333333,149.63849948732656L200.6890625,146.50747558673052L201.84244791666666,156.36456704589955L202.9958333333333,155.48492450454438L204.14921875000002,151.0116463412493L205.30260416666667,147.80318770929736L206.45598958333335,133.69056113767695L207.609375,143.42547971001773L208.76276041666665,149.2932921501819L209.91614583333333,133.5556770316456L211.06953124999998,142.77771119386122L212.2229166666667,148.6542072912001L213.37630208333334,144.40446181283718L214.5296875,156.62955745370982L215.68307291666667,168.65578383525627L216.83645833333333,171.01951508315653L217.98984375,168.0619384403562L219.14322916666666,158.9251242187276L220.2966145833333,172.94199427339692L221.45000000000002,167.1731922754707L222.60338541666667,158.0714059217874L223.75677083333335,154.72649609179587L224.91015625,157.1851052788772L226.06354166666665,150.77581871304844L227.21692708333333,140.5981025661266L228.37031249999998,144.44591744533594L229.5236979166667,141.82872594073265L230.67708333333334,139.60354672675243L231.83046875,145.49349860167783L232.98385416666667,155.58225556105145L234.13723958333333,159.4885000990549L235.290625,154.4546217803192L236.44401041666666,144.01404951252067L237.5973958333333,147.4253853586897L238.75078125000002,145.84890740082176L239.90416666666667,150.2118770603932L241.05755208333335,152.66778005839305L242.2109375,158.68617284240213L243.36432291666665,160.37982245781487L244.51770833333333,166.18197380204083L245.67109374999998,166.78539341310113L246.8244791666667,165.7532220725053L247.97786458333334,176.2105354494155L249.13125,176.74302260767553L250.28463541666667,171.35653205859677L251.43802083333333,179.01497906402224" style="fill: none;" fill="none"></path></g></g></g></g><g opacity="0.2"><g><g><g><path stroke="rgb(255, 112, 67)" stroke-width="2px" d="M23.067708333333332,3.364077568054199L24.221093749999998,53.13953495025635L25.374479166666664,55.89536762237549L26.527864583333336,42.65086587270102L27.681250000000002,48.86503950754802L28.834635416666668,24.092734548780662L29.988020833333334,27.947292751736107L31.14140625,4.511146439446339L32.29479166666667,10.93454562293159L33.448177083333334,10.465478261311862L34.6015625,21.224363009134933L35.75494791666667,10.664009412129733L36.90833333333333,18.14935938517253L38.061718750000004,-9.63521067301431L39.21510416666666,3.779585520426439L40.368489583333336,2.1860911051432357L41.521875,4.7778361638387175L42.67526041666667,-5.884973843892428L43.82864583333333,10.913127687242307L44.98203125,2.1386219660441146L46.135416666666664,-0.01409912109375L47.28880208333334,17.546276940239796L48.442187499999996,15.126225047641332L49.59557291666667,25.878524144490573L50.74895833333333,20.93876139322917L51.90234375,19.079771995544434L53.05572916666667,6.648656421237524L54.20911458333333,11.314153035481784L55.362500000000004,16.95811420016819L56.51588541666666,19.526197539435497L57.669270833333336,-2.8413831922743142L58.82265625,24.377928204006615L59.97604166666667,9.517406781514499L61.12942708333333,15.213004112243652L62.2828125,3.031589614020458L63.436197916666664,24.499238226148826L64.58958333333334,17.396613650851783L65.74296875,17.372165150112572L66.89635416666667,20.740813043382445L68.04973958333333,27.27211782667373L69.203125,30.423701498243553L70.35651041666667,21.29144340091282L71.50989583333335,35.05248165130615L72.66328125,36.26182280646431L73.81666666666666,37.22901015811497L74.97005208333333,38.39172723558215L76.12343750000001,29.968592219882545L77.27682291666667,33.448817359076614L78.43020833333333,18.03763643900554L79.58359374999999,19.493036164177784L80.73697916666667,19.255632188585082L81.89036458333334,28.59082158406577L83.04375,11.602202415466309L84.19713541666665,38.643759515550414L85.35052083333333,41.84858205583362L86.50390625,40.66651598612468L87.65729166666667,22.43527772691516L88.81067708333335,25.508154127332908L89.9640625,28.51377529568142L91.11744791666666,18.753782272338867L92.27083333333333,33.420085271199554L93.42421875000001,31.591780344645187L94.57760416666667,26.46450138092041L95.73098958333333,58.6843908098009L96.88437499999999,39.47101635403103L98.03776041666667,62.60830232832168L99.19114583333334,89.3185370763143L100.34453125,55.6465990278456L101.49791666666665,71.11967341105144L102.65130208333333,41.32344924079048L103.8046875,27.812898847791892L104.95807291666667,54.33643330468073L106.11145833333335,24.123739560445163L107.26484375,23.24813938140869L108.41822916666666,31.93222353193496L109.57161458333333,52.69917053646511L110.72500000000001,48.03253746032715L111.87838541666667,31.55381086137561L113.03177083333333,37.01707458496094L114.18515624999999,46.33116658528647L115.33854166666667,57.80488586425781L116.49192708333334,57.142503420511886L117.6453125,43.17375490400527L118.79869791666665,46.90030087365046L119.95208333333333,53.47613165113662L121.10546875,41.127715534634056L122.25885416666667,60.34694714016384L123.41223958333335,64.49905437893338L124.565625,71.69676293267146L125.71901041666666,80.67924118041992L126.87239583333333,68.9599878523085L128.02578125,43.92361577351889L129.17916666666667,73.21111297607422L130.33255208333333,75.68143145243327L131.4859375,80.25950792100696L132.63932291666669,70.5130941602919L133.79270833333334,71.59066401587593L134.94609375,69.02048259311252L136.09947916666667,68.66628530290393L137.25286458333335,57.62287712097168L138.40625,67.31736331515842L139.55963541666665,65.13328753577339L140.71302083333333,64.02031252119278L141.86640624999998,122.02151023017036L143.0197916666667,113.32099109225805L144.17317708333334,100.3921634886L145.3265625,73.8294939464993L146.47994791666667,89.82580704159209L147.63333333333333,90.48105017344157L148.78671875,70.83477115631104L149.94010416666666,101.26047865549724L151.0934895833333,59.00933149125842L152.24687500000002,75.52148172590469L153.40026041666667,57.3010252846612L154.55364583333335,72.57212999131946L155.70703125,73.47794840070938L156.86041666666665,67.81492964426677L158.01380208333333,113.87106778886584L159.16718749999998,107.14053249359131L160.3205729166667,128.28258477316962L161.47395833333334,88.52243094974096L162.62734375,78.90280554029678L163.78072916666667,74.61674149831137L164.93411458333333,103.01368967692058L166.0875,111.2312707901001L167.24088541666666,82.35211308797201L168.3942708333333,90.58974255455864L169.54765625000002,97.18250370025635L170.70104166666667,104.29197618696426L171.85442708333335,106.49108823140463L173.0078125,120.8054960038927L174.16119791666665,76.57722568511963L175.31458333333333,108.8661478890313L176.46796874999998,122.12128575642905L177.6213541666667,138.48228655921088L178.77473958333334,114.58409563700359L179.928125,133.33316712909274L181.08151041666667,124.93394152323405L182.23489583333333,94.391965230306L183.38828125,103.04297542572021L184.54166666666666,112.63162496354846L185.6950520833333,122.00385136074492L186.84843750000002,129.94200854831274L188.00182291666667,76.96945073869495L189.15520833333335,138.55891031689117L190.30859375,114.46934212578667L191.46197916666665,115.52427016364204L192.61536458333333,113.8337393866645L193.76874999999998,129.26061222288345L194.9221354166667,153.1447285016378L196.07552083333334,132.84507131576538L197.22890625,140.44077465269302L198.38229166666667,153.01488044526843L199.53567708333333,159.70872841940985L200.6890625,141.81093973583648L201.84244791666666,171.15020423465305L202.9958333333333,154.16546069251166L204.14921875000002,144.3017290963067L205.30260416666667,142.9904997613695L206.45598958333335,112.52162128024634L207.609375,158.02785756852893L208.76276041666665,158.0950108104282L209.91614583333333,109.94925435384116L211.06953124999998,156.61076243718466L212.2229166666667,157.4689514372084L213.37630208333334,138.02984359529285L214.5296875,174.96720091501874L215.68307291666667,186.69512340757584L216.83645833333333,174.56511195500693L217.98984375,163.6255734761556L219.14322916666666,145.21990288628473L220.2966145833333,193.96729935540094L221.45000000000002,158.51998927858142L222.60338541666667,144.4187263912625L223.75677083333335,149.70913134680853L224.91015625,160.87301905949911L226.06354166666665,141.1618888643053L227.21692708333333,125.33152834574382L228.37031249999998,150.21763976415L229.5236979166667,137.90293868382773L230.67708333333334,136.26577790578207L231.83046875,154.3284264140659L232.98385416666667,170.7153910001119L234.13723958333333,165.34786690606012L235.290625,146.90380430221558L236.44401041666666,128.3531911108229L237.5973958333333,152.54238912794327L238.75078125000002,143.48419046401978L239.90416666666667,156.75633154975043L241.05755208333335,156.3516345553928L242.2109375,167.71376201841568L243.36432291666665,162.920296880934L244.51770833333333,174.88520081837973L245.67109374999998,167.6905228296916L246.8244791666667,164.20496506161163L247.97786458333334,191.8965055147807L249.13125,177.54175334506567L250.28463541666667,163.27679623497858L251.43802083333333,190.5026495721605L252.59140625,171.71488009558783" style="fill: none;" fill="none"></path></g></g></g></g></g><g><g><span fill="rgb(0, 0, 0)" stroke="none" stroke-width="1px">Alt + Scroll to Zoom</span></g></g></g><g transform="translate(53, 176)" clip-path="url(#clip_1)"><clipPath id="clip_1"><rect width="276" height="24"></rect></clipPath><g><g><line x1="0" y1="0" x2="0" y2="5" style="visibility: inherit;" fill="rgb(0, 0, 0)" stroke="rgb(204, 204, 204)" stroke-width="1px"></line><line x1="23.067708333333332" y1="0" x2="23.067708333333332" y2="5" style="visibility: inherit;" fill="rgb(0, 0, 0)" stroke="rgb(204, 204, 204)" stroke-width="1px"></line><line x1="46.135416666666664" y1="0" x2="46.135416666666664" y2="5" style="visibility: inherit;" fill="rgb(0, 0, 0)" stroke="rgb(204, 204, 204)" stroke-width="1px"></line><line x1="69.203125" y1="0" x2="69.203125" y2="5" style="visibility: inherit;" fill="rgb(0, 0, 0)" stroke="rgb(204, 204, 204)" stroke-width="1px"></line><line x1="92.27083333333333" y1="0" x2="92.27083333333333" y2="5" style="visibility: inherit;" fill="rgb(0, 0, 0)" stroke="rgb(204, 204, 204)" stroke-width="1px"></line><line x1="115.33854166666667" y1="0" x2="115.33854166666667" y2="5" style="visibility: inherit;" fill="rgb(0, 0, 0)" stroke="rgb(204, 204, 204)" stroke-width="1px"></line><line x1="138.40625" y1="0" x2="138.40625" y2="5" style="visibility: inherit;" fill="rgb(0, 0, 0)" stroke="rgb(204, 204, 204)" stroke-width="1px"></line><line x1="161.47395833333334" y1="0" x2="161.47395833333334" y2="5" style="visibility: inherit;" fill="rgb(0, 0, 0)" stroke="rgb(204, 204, 204)" stroke-width="1px"></line><line x1="184.54166666666666" y1="0" x2="184.54166666666666" y2="5" style="visibility: inherit;" fill="rgb(0, 0, 0)" stroke="rgb(204, 204, 204)" stroke-width="1px"></line><line x1="207.609375" y1="0" x2="207.609375" y2="5" style="visibility: inherit;" fill="rgb(0, 0, 0)" stroke="rgb(204, 204, 204)" stroke-width="1px"></line><line x1="230.67708333333334" y1="0" x2="230.67708333333334" y2="5" style="visibility: inherit;" fill="rgb(0, 0, 0)" stroke="rgb(204, 204, 204)" stroke-width="1px"></line><line x1="253.74479166666666" y1="0" x2="253.74479166666666" y2="5" style="visibility: inherit;" fill="rgb(0, 0, 0)" stroke="rgb(204, 204, 204)" stroke-width="1px"></line><line x1="276.8125" y1="0" x2="276.8125" y2="5" style="visibility: inherit;" fill="rgb(0, 0, 0)" stroke="rgb(204, 204, 204)" stroke-width="1px"></line></g><g transform="translate(0, 8)"><text x="0" y="0" dx="0em" dy="0.95em" style="text-anchor: middle; visibility: hidden; font-family: Roboto, sans-serif; font-size: 12px; font-weight: 200;" fill="rgb(33, 33, 33)" stroke="none" stroke-width="1px">-20</text><text x="23.067708333333332" y="0" dx="0em" dy="0.95em" style="text-anchor: middle; visibility: inherit; font-family: Roboto, sans-serif; font-size: 12px; font-weight: 200;" fill="rgb(33, 33, 33)" stroke="none" stroke-width="1px">0</text><text x="46.135416666666664" y="0" dx="0em" dy="0.95em" style="text-anchor: middle; visibility: hidden; font-family: Roboto, sans-serif; font-size: 12px; font-weight: 200;" fill="rgb(33, 33, 33)" stroke="none" stroke-width="1px">20</text><text x="69.203125" y="0" dx="0em" dy="0.95em" style="text-anchor: middle; visibility: inherit; font-family: Roboto, sans-serif; font-size: 12px; font-weight: 200;" fill="rgb(33, 33, 33)" stroke="none" stroke-width="1px">40</text><text x="92.27083333333333" y="0" dx="0em" dy="0.95em" style="text-anchor: middle; visibility: hidden; font-family: Roboto, sans-serif; font-size: 12px; font-weight: 200;" fill="rgb(33, 33, 33)" stroke="none" stroke-width="1px">60</text><text x="115.33854166666667" y="0" dx="0em" dy="0.95em" style="text-anchor: middle; visibility: inherit; font-family: Roboto, sans-serif; font-size: 12px; font-weight: 200;" fill="rgb(33, 33, 33)" stroke="none" stroke-width="1px">80</text><text x="138.40625" y="0" dx="0em" dy="0.95em" style="text-anchor: middle; visibility: hidden; font-family: Roboto, sans-serif; font-size: 12px; font-weight: 200;" fill="rgb(33, 33, 33)" stroke="none" stroke-width="1px">100</text><text x="161.47395833333334" y="0" dx="0em" dy="0.95em" style="text-anchor: middle; visibility: inherit; font-family: Roboto, sans-serif; font-size: 12px; font-weight: 200;" fill="rgb(33, 33, 33)" stroke="none" stroke-width="1px">120</text><text x="184.54166666666666" y="0" dx="0em" dy="0.95em" style="text-anchor: middle; visibility: hidden; font-family: Roboto, sans-serif; font-size: 12px; font-weight: 200;" fill="rgb(33, 33, 33)" stroke="none" stroke-width="1px">140</text><text x="207.609375" y="0" dx="0em" dy="0.95em" style="text-anchor: middle; visibility: inherit; font-family: Roboto, sans-serif; font-size: 12px; font-weight: 200;" fill="rgb(33, 33, 33)" stroke="none" stroke-width="1px">160</text><text x="230.67708333333334" y="0" dx="0em" dy="0.95em" style="text-anchor: middle; visibility: hidden; font-family: Roboto, sans-serif; font-size: 12px; font-weight: 200;" fill="rgb(33, 33, 33)" stroke="none" stroke-width="1px">180</text><text x="253.74479166666666" y="0" dx="0em" dy="0.95em" style="text-anchor: middle; visibility: inherit; font-family: Roboto, sans-serif; font-size: 12px; font-weight: 200;" fill="rgb(33, 33, 33)" stroke="none" stroke-width="1px">200</text><text x="276.8125" y="0" dx="0em" dy="0.95em" style="text-anchor: middle; visibility: hidden; font-family: Roboto, sans-serif; font-size: 12px; font-weight: 200;" fill="rgb(33, 33, 33)" stroke="none" stroke-width="1px">220</text></g><line x1="0" y1="0" x2="276.8125" y2="0" fill="rgb(0, 0, 0)" stroke="rgb(204, 204, 204)" stroke-width="1px"></line></g></g></g></g></svg>