<svg viewBox="0 0 330 200" xmlns="http://www.w3.org/2000/svg"><g><g><g><g><g><line x1="85.578125" y1="176" x2="80.578125" y2="176" style="visibility: inherit;" fill="rgb(0, 0, 0)" stroke="rgb(204, 204, 204)" stroke-width="1px"></line><line x1="85.578125" y1="158.39999999999998" x2="80.578125" y2="158.39999999999998" style="visibility: inherit;" fill="rgb(0, 0, 0)" stroke="rgb(204, 204, 204)" stroke-width="1px"></line><line x1="85.578125" y1="140.79999999999995" x2="80.578125" y2="140.79999999999995" style="visibility: inherit;" fill="rgb(0, 0, 0)" stroke="rgb(204, 204, 204)" stroke-width="1px"></line><line x1="85.578125" y1="123.20000000000003" x2="80.578125" y2="123.20000000000003" style="visibility: inherit;" fill="rgb(0, 0, 0)" stroke="rgb(204, 204, 204)" stroke-width="1px"></line><line x1="85.578125" y1="105.60000000000002" x2="80.578125" y2="105.60000000000002" style="visibility: inherit;" fill="rgb(0, 0, 0)" stroke="rgb(204, 204, 204)" stroke-width="1px"></line><line x1="85.578125" y1="88" x2="80.578125" y2="88" style="visibility: inherit;" fill="rgb(0, 0, 0)" stroke="rgb(204, 204, 204)" stroke-width="1px"></line><line x1="85.578125" y1="70.39999999999998" x2="80.578125" y2="70.39999999999998" style="visibility: inherit;" fill="rgb(0, 0, 0)" stroke="rgb(204, 204, 204)" stroke-width="1px"></line><line x1="85.578125" y1="52.800000000000026" x2="80.578125" y2="52.800000000000026" style="visibility: inherit;" fill="rgb(0, 0, 0)" stroke="rgb(204, 204, 204)" stroke-width="1px"></line><line x1="85.578125" y1="35.20000000000003" x2="80.578125" y2="35.20000000000003" style="visibility: inherit;" fill="rgb(0, 0, 0)" stroke="rgb(204, 204, 204)" stroke-width="1px"></line><line x1="85.578125" y1="17.600000000000016" x2="80.578125" y2="17.600000000000016" style="visibility: inherit;" fill="rgb(0, 0, 0)" stroke="rgb(204, 204, 204)" stroke-width="1px"></line><line x1="85.578125" y1="0" x2="80.578125" y2="0" style="visibility: inherit;" fill="rgb(0, 0, 0)" stroke="rgb(204, 204, 204)" stroke-width="1px"></line></g><g transform="translate(75.578125, 0)"><text x="0" y="176" dx="0em" dy="0.3em" style="text-anchor: end; visibility: hidden; font-family: Roboto, sans-serif; font-size: 12px; font-weight: 200;" fill="rgb(33, 33, 33)" stroke="none" stroke-width="1px">-0.014</text><text x="0" y="158.39999999999998" dx="0em" dy="0.3em" style="text-anchor: end; visibility: inherit; font-family: Roboto, sans-serif; font-size: 12px; font-weight: 200;" fill="rgb(33, 33, 33)" stroke="none" stroke-width="1px">-0.0135</text><text x="0" y="140.79999999999995" dx="0em" dy="0.3em" style="text-anchor: end; visibility: hidden; font-family: Roboto, sans-serif; font-size: 12px; font-weight: 200;" fill="rgb(33, 33, 33)" stroke="none" stroke-width="1px">-0.013</text><text x="0" y="123.20000000000003" dx="0em" dy="0.3em" style="text-anchor: end; visibility: inherit; font-family: Roboto, sans-serif; font-size: 12px; font-weight: 200;" fill="rgb(33, 33, 33)" stroke="none" stroke-width="1px">-0.0125</text><text x="0" y="105.60000000000002" dx="0em" dy="0.3em" style="text-anchor: end; visibility: hidden; font-family: Roboto, sans-serif; font-size: 12px; font-weight: 200;" fill="rgb(33, 33, 33)" stroke="none" stroke-width="1px">-0.012</text><text x="0" y="88" dx="0em" dy="0.3em" style="text-anchor: end; visibility: inherit; font-family: Roboto, sans-serif; font-size: 12px; font-weight: 200;" fill="rgb(33, 33, 33)" stroke="none" stroke-width="1px">-0.0115</text><text x="0" y="70.39999999999998" dx="0em" dy="0.3em" style="text-anchor: end; visibility: hidden; font-family: Roboto, sans-serif; font-size: 12px; font-weight: 200;" fill="rgb(33, 33, 33)" stroke="none" stroke-width="1px">-0.011</text><text x="0" y="52.800000000000026" dx="0em" dy="0.3em" style="text-anchor: end; visibility: inherit; font-family: Roboto, sans-serif; font-size: 12px; font-weight: 200;" fill="rgb(33, 33, 33)" stroke="none" stroke-width="1px">-0.0105</text><text x="0" y="35.20000000000003" dx="0em" dy="0.3em" style="text-anchor: end; visibility: hidden; font-family: Roboto, sans-serif; font-size: 12px; font-weight: 200;" fill="rgb(33, 33, 33)" stroke="none" stroke-width="1px">-0.01</text><text x="0" y="17.600000000000016" dx="0em" dy="0.3em" style="text-anchor: end; visibility: inherit; font-family: Roboto, sans-serif; font-size: 12px; font-weight: 200;" fill="rgb(33, 33, 33)" stroke="none" stroke-width="1px">-9.5e-3</text><text x="0" y="0" dx="0em" dy="0.3em" style="text-anchor: end; visibility: hidden; font-family: Roboto, sans-serif; font-size: 12px; font-weight: 200;" fill="rgb(33, 33, 33)" stroke="none" stroke-width="1px">-9e-3</text></g><line x1="85.578125" y1="0" x2="85.578125" y2="176" fill="rgb(0, 0, 0)" stroke="rgb(204, 204, 204)" stroke-width="1px"></line></g></g><g transform="translate(85, 0)" clip-path="url(#clip_0)"><clipPath id="clip_0"><rect width="244" height="176"></rect></clipPath><g><g><g><line x1="0" y1="0" x2="0" y2="176" fill="rgb(0, 0, 0)" stroke="rgb(66, 66, 66)" stroke-width="1px" opacity="0.25"></line><line x1="20.368489583333332" y1="0" x2="20.368489583333332" y2="176" fill="rgb(0, 0, 0)" stroke="rgb(66, 66, 66)" stroke-width="1px" opacity="0.25"></line><line x1="40.736979166666664" y1="0" x2="40.736979166666664" y2="176" fill="rgb(0, 0, 0)" stroke="rgb(66, 66, 66)" stroke-width="1px" opacity="0.25"></line><line x1="61.10546875" y1="0" x2="61.10546875" y2="176" fill="rgb(0, 0, 0)" stroke="rgb(66, 66, 66)" stroke-width="1px" opacity="0.25"></line><line x1="81.47395833333333" y1="0" x2="81.47395833333333" y2="176" fill="rgb(0, 0, 0)" stroke="rgb(66, 66, 66)" stroke-width="1px" opacity="0.25"></line><line x1="101.84244791666667" y1="0" x2="101.84244791666667" y2="176" fill="rgb(0, 0, 0)" stroke="rgb(66, 66, 66)" stroke-width="1px" opacity="0.25"></line><line x1="122.2109375" y1="0" x2="122.2109375" y2="176" fill="rgb(0, 0, 0)" stroke="rgb(66, 66, 66)" stroke-width="1px" opacity="0.25"></line><line x1="142.57942708333334" y1="0" x2="142.57942708333334" y2="176" fill="rgb(0, 0, 0)" stroke="rgb(66, 66, 66)" stroke-width="1px" opacity="0.25"></line><line x1="162.94791666666666" y1="0" x2="162.94791666666666" y2="176" fill="rgb(0, 0, 0)" stroke="rgb(66, 66, 66)" stroke-width="1px" opacity="0.25"></line><line x1="183.31640625" y1="0" x2="183.31640625" y2="176" fill="rgb(0, 0, 0)" stroke="rgb(66, 66, 66)" stroke-width="1px" opacity="0.25"></line><line x1="203.68489583333334" y1="0" x2="203.68489583333334" y2="176" fill="rgb(0, 0, 0)" stroke="rgb(66, 66, 66)" stroke-width="1px" opacity="0.25"></line><line x1="224.05338541666666" y1="0" x2="224.05338541666666" y2="176" fill="rgb(0, 0, 0)" stroke="rgb(66, 66, 66)" stroke-width="1px" opacity="0.25"></line><line x1="244.421875" y1="0" x2="244.421875" y2="176" fill="rgb(0, 0, 0)" stroke="rgb(66, 66, 66)" stroke-width="1px" opacity="0.25"></line></g><g><line x1="0" y1="176" x2="244.421875" y2="176" fill="rgb(0, 0, 0)" stroke="rgb(66, 66, 66)" stroke-width="1px" opacity="0.25"></line><line x1="0" y1="158.39999999999998" x2="244.421875" y2="158.39999999999998" fill="rgb(0, 0, 0)" stroke="rgb(66, 66, 66)" stroke-width="1px" opacity="0.25"></line><line x1="0" y1="140.79999999999995" x2="244.421875" y2="140.79999999999995" fill="rgb(0, 0, 0)" stroke="rgb(66, 66, 66)" stroke-width="1px" opacity="0.25"></line><line x1="0" y1="123.20000000000003" x2="244.421875" y2="123.20000000000003" fill="rgb(0, 0, 0)" stroke="rgb(66, 66, 66)" stroke-width="1px" opacity="0.25"></line><line x1="0" y1="105.60000000000002" x2="244.421875" y2="105.60000000000002" fill="rgb(0, 0, 0)" stroke="rgb(66, 66, 66)" stroke-width="1px" opacity="0.25"></line><line x1="0" y1="88" x2="244.421875" y2="88" fill="rgb(0, 0, 0)" stroke="rgb(66, 66, 66)" stroke-width="1px" opacity="0.25"></line><line x1="0" y1="70.39999999999998" x2="244.421875" y2="70.39999999999998" fill="rgb(0, 0, 0)" stroke="rgb(66, 66, 66)" stroke-width="1px" opacity="0.25"></line><line x1="0" y1="52.800000000000026" x2="244.421875" y2="52.800000000000026" fill="rgb(0, 0, 0)" stroke="rgb(66, 66, 66)" stroke-width="1px" opacity="0.25"></line><line x1="0" y1="35.20000000000003" x2="244.421875" y2="35.20000000000003" fill="rgb(0, 0, 0)" stroke="rgb(66, 66, 66)" stroke-width="1px" opacity="0.25"></line><line x1="0" y1="17.600000000000016" x2="244.421875" y2="17.600000000000016" fill="rgb(0, 0, 0)" stroke="rgb(66, 66, 66)" stroke-width="1px" opacity="0.25"></line><line x1="0" y1="0" x2="244.421875" y2="0" fill="rgb(0, 0, 0)" stroke="rgb(66, 66, 66)" stroke-width="1px" opacity="0.25"></line></g></g></g><g><g><line x1="0" y1="-316.7999999999999" x2="244.421875" y2="-316.7999999999999" fill="rgb(0, 0, 0)" stroke="rgb(153, 153, 153)" stroke-width="1.5px"></line></g></g><g><g><line x1="20.368489583333332" y1="0" x2="20.368489583333332" y2="176" fill="rgb(0, 0, 0)" stroke="rgb(153, 153, 153)" stroke-width="1.5px"></line></g></g><g><g><g><g><g><path stroke="rgb(255, 112, 67)" stroke-width="2px" d="M21.386914062499997,-120.23226162367497L22.405338541666666,21.22337424962648L23.423763020833334,110.00196950249777L24.442187500000003,175.59790917601688L25.460611979166668,243.3768181998837L32.58958333333333,178.92166277769385L33.608007812500006,168.25713924304353L34.62643229166667,155.77270671831891L35.644856770833336,141.99283458862936L36.66328125,130.8932352899754L37.681705729166666,118.1077702194804L38.700130208333334,113.1389923137328L39.7185546875,105.12592795463875L40.736979166666664,97.62096086990613L41.75540364583333,86.25557104991647L42.773828124999994,86.80922209385221L43.79225260416667,79.36498395221568L44.81067708333333,69.71042604074273L45.8291015625,66.36535035552197L46.84752604166667,72.29342585629448L47.86595052083333,73.65757197839828L48.884375000000006,64.2162434570228L49.90279947916667,57.910470807796294L50.921223958333336,54.12696877137657L51.9396484375,48.06292940882593L52.958072916666666,47.56993991469264L53.976497395833334,38.44653834867421L54.994921875,49.663814229487976L56.013346354166664,32.139180223620244L57.03177083333333,33.95502030094257L58.050195312499994,31.953601496177754L59.06861979166667,33.53613335530346L60.08704427083333,31.14349724593038L61.10546875,25.58427671071417L62.12389322916666,24.509272004304762L63.14231770833334,22.422702236251624L64.1607421875,33.4763479080733L65.17916666666666,31.564995069718577L66.19759114583333,36.653962891071245L67.21601562500001,25.644178395317805L68.23444010416667,27.276380093639098L69.25286458333333,34.97780327792112L70.27128906249999,29.057544765395612L71.28971354166667,38.24221202468719L72.30813802083334,25.399227103767238L73.3265625,21.030792003372156L74.34498697916666,18.038107903893888L75.36341145833333,10.895164489798905L76.3818359375,17.54167230609503L77.40026041666667,20.73987148096307L78.41868489583334,17.570033709347726L79.437109375,16.52795188912175L80.45553385416666,19.55622671895294L81.47395833333333,20.274503968078342L82.49238281250001,20.065318816851615L83.51080729166667,22.90428168889953L84.52923177083333,24.25034267972152L85.54765624999999,18.161303449095705L86.56608072916667,17.607011494887754L87.58450520833334,9.736219016225819L88.6029296875,18.57726324529154L89.62135416666666,13.858427010361556L90.63977864583333,20.068055540552322L91.658203125,15.874865650075993L92.67662760416667,13.855961469971145L93.69505208333334,11.147177431680626L94.7134765625,15.422688163338758L95.73190104166666,18.72880165876068L96.75032552083333,18.189222752458562L97.76875000000001,20.363020889405476L98.78717447916667,15.610512995984616L99.80559895833333,23.221101613203547L100.82402343749999,19.942956626033745L101.84244791666667,13.216331188449818L102.86087239583334,16.77512969527813L103.879296875,21.637510840619697L104.89772135416666,17.896081466987805L105.91614583333333,21.00182193965619L106.9345703125,18.708818574255126L107.95299479166667,12.946199338141348L108.97141927083334,5.561972742380659L109.98984375,-0.12058142834787233L111.00826822916666,2.106898789323088L112.02669270833333,0.9924188928107647L113.04511718750001,15.36677981354598L114.06354166666667,18.378839431630418L115.08196614583333,17.20187925483397L116.10039062499999,12.170294213209262L117.11881510416667,15.804025015779581L118.13723958333334,15.725388127296142L119.1556640625,22.864430454807913L120.17408854166666,13.67325553622091L121.19251302083333,18.07621749714763L122.2109375,18.25321863458007L123.22936197916667,25.217936248573395L124.24778645833332,28.514719402189698L125.26621093749999,29.04475763046485L126.28463541666667,28.237906214021105L127.30305989583334,29.581449010623977L128.321484375,33.41117526689381L129.33990885416668,29.705987634654093L130.35833333333332,24.995505279538204L131.3767578125,35.76128263130023L132.39518229166666,49.71217908653163L133.41360677083333,46.637946861937905L134.43203125000002,36.69926365968896L135.45045572916666,30.02085641358684L136.46888020833333,24.762711764182978L137.4873046875,25.396386795524556L138.50572916666667,34.31583098249663L139.52415364583334,27.454330542546664L140.54257812499998,32.31055311373601L141.56100260416667,37.62566123492559L142.57942708333334,33.55467533401873L143.5978515625,33.38758647520679L144.61627604166668,27.408332734580906L145.63470052083332,25.54505107240441L146.653125,29.0653545989785L147.67154947916666,31.629122961413472L148.68997395833333,38.77108962348202L149.70839843750002,40.527502034968705L150.72682291666666,31.903677095691293L151.74524739583333,32.82354101998804L152.763671875,32.07555240549567L153.78209635416667,35.26189870213223L154.80052083333334,32.48358506783694L155.81894531249998,44.93700041547331L156.83736979166667,35.813117378800584L157.85579427083334,26.854998589664355L158.87421875,30.749053698247437L159.89264322916668,30.72287427751168L160.91106770833332,30.24064464669192L161.9294921875,39.32627825797062L162.94791666666666,33.97877021825593L163.96634114583333,37.42376022932696L164.98476562500002,48.436746228920015L166.00319010416666,40.46169047187962L167.02161458333333,43.76427060026648L168.0400390625,49.46834332024292L169.05846354166667,47.962270802707884L170.07688802083334,42.06979124215331L171.09531249999998,51.18800242702416L172.11373697916667,46.49101331687127L173.13216145833334,39.235884664393396L174.1505859375,35.17859790679031L175.16901041666668,53.61921250078805L176.18743489583332,42.180835867248376L177.205859375,40.25918991108086L178.22428385416666,30.238639328118296L179.24270833333333,36.00453010871182L180.26113281250002,45.561449268306355L181.27955729166666,46.14047848394224L182.29798177083333,52.131084966723385L183.31640625,43.13764286998768L184.33483072916667,49.17554257967389L185.35325520833334,40.38398792420811L186.37167968749998,38.95349153801796L187.39010416666667,44.36138232782483L188.40852864583334,47.00773027560118L189.426953125,40.524526547318665L190.44537760416668,42.63809976513742L191.46380208333332,39.06793202361804L192.4822265625,33.57443148017734L193.50065104166666,56.41026269746315L194.51907552083333,38.43404445739087L195.53750000000002,54.11339448983366L196.55592447916666,53.60370476183235L197.57434895833333,34.02477791271769L198.5927734375,34.011176676524606L199.61119791666667,47.17195171056563L200.62962239583334,62.18827618800623L201.64804687499998,63.17480289008033L202.66647135416667,60.24736742893347L203.68489583333334,48.181172999855804L204.7033203125,37.772550368974734L205.72174479166668,26.16353454152954L206.74016927083332,42.20184032178046L207.75859375,40.59645789179878L208.77701822916666,56.44518460103079L209.79544270833333,71.3332117203963L210.81386718750002,60.559713189845844L211.83229166666666,46.50935065331786L212.85071614583333,47.87778625716405L213.869140625,41.2916031755783L214.88756510416667,49.67043493734466L215.90598958333334,40.90657221881548L216.92441406249998,42.824408247518534L217.94283854166667,69.57399706986432L218.96126302083334,43.82692423908046L219.9796875,39.64879830031474L220.99811197916668,57.14826347916649L222.01653645833332,32.94734625392747L223.0349609375,39.6532640050268" style="fill: none;" fill="none"></path></g></g></g></g><g opacity="0.2"><g><g><g><path stroke="rgb(255, 112, 67)" stroke-width="2px" d="M21.386914062499997,-5.84592990875241L22.405338541666666,157.0207846879959L23.423763020833334,214.40559751987456L30.552734375,183.46594698429107L31.57115885416667,174.37036163806914L32.58958333333333,149.6847046136856L33.608007812500006,152.28124685287474L34.62643229166667,137.06073291301726L35.644856770833336,121.3327450275421L36.66328125,114.24853332042693L37.681705729166666,98.93281884193419L38.700130208333334,105.6865823984146L39.7185546875,93.10706384181975L40.736979166666664,86.36392183303835L41.75540364583333,69.20786030292513L42.773828124999994,87.63968772888185L43.79225260416667,68.19871492385866L44.81067708333333,55.22865779399873L45.8291015625,61.34775109291078L46.84752604166667,81.18552393913271L47.86595052083333,75.70378906726839L48.884375000000006,50.05425937175752L49.90279947916667,48.45181531906129L50.921223958333336,48.45171697139741L51.9396484375,38.96687157154084L52.958072916666666,46.83045573234559L53.976497395833334,24.761436653137217L54.994921875,66.48972756862642L56.013346354166664,5.852229666709931L57.03177083333333,36.6787803888321L58.050195312499994,28.951473307609568L59.06861979166667,35.90993113517762L60.08704427083333,27.554543089866648L61.10546875,17.245445919036875L62.12389322916666,22.896764945983897L63.14231770833334,19.29284758567811L64.1607421875,50.05681641101838L65.17916666666666,28.697965812683115L66.19759114583333,44.287414622306834L67.21601562500001,9.129501652717622L68.23444010416667,29.724682641029368L69.25286458333333,46.52993805408479L70.27128906249999,20.177156996727L71.28971354166667,52.01921291351319L72.30813802083334,6.134749722480805L73.3265625,14.478139352798474L74.34498697916666,13.54908175468446L75.36341145833333,0.1807493686676338L76.3818359375,27.511434030532847L77.40026041666667,25.537170243263255L78.41868489583334,12.815277051925671L79.437109375,14.96482915878297L80.45553385416666,24.09863896369935L81.47395833333333,21.351919841766367L82.49238281250001,19.751541090011607L83.51080729166667,27.16272599697114L84.52923177083333,26.2694341659546L85.54765624999999,9.027744603157075L86.56608072916667,16.775573563575755L87.58450520833334,-2.0699697017669365L88.6029296875,31.838829588890086L89.62135416666666,6.780172657966645L90.63977864583333,29.382498335838328L91.658203125,9.585080814361604L92.67662760416667,10.827605199813874L93.69505208333334,7.084001374244721L94.7134765625,21.83595426082612L95.73190104166666,23.687971901893626L96.75032552083333,17.37985439300538L97.76875000000001,23.623718094825755L98.78717447916667,8.481751155853303L99.80559895833333,34.63698453903199L100.82402343749999,15.025739145278942L101.84244791666667,3.126393032074006L102.86087239583334,22.11332745552064L103.879296875,28.931082558631907L104.89772135416666,12.283937406539948L105.91614583333333,25.660432648658762L106.9345703125,15.269313526153576L107.95299479166667,4.302270483970673L108.97141927083334,-5.514367151260345L109.98984375,-8.644412684440582L111.00826822916666,5.448119115829499L112.02669270833333,-0.6793009519576714L113.04511718750001,36.92832119464875L114.06354166666667,22.89692885875703L115.08196614583333,15.436438989639294L116.10039062499999,4.622916650772126L117.11881510416667,21.25462121963502L118.13723958333334,15.607432794570935L119.1556640625,33.57299394607545L120.17408854166666,-0.11350684165951463L121.19251302083333,24.680660438537608L122.2109375,18.51872034072877L123.22936197916667,35.6650126695633L124.24778645833332,33.459894132614146L125.26621093749999,29.839814972877512L126.28463541666667,27.02762908935548L127.30305989583334,31.59676320552827L128.321484375,39.15576465129853L129.33990885416668,24.148206186294566L130.35833333333332,17.92978174686433L131.3767578125,51.909948658943186L132.39518229166666,70.63852376937868L133.41360677083333,42.02659852504731L134.43203125000002,21.791238856315623L135.45045572916666,20.003245544433604L136.46888020833333,16.87549479007722L137.4873046875,26.346899342536936L138.50572916666667,47.69499726295472L139.52415364583334,17.162079882621775L140.54257812499998,39.59488697052003L141.56100260416667,45.59832341670991L142.57942708333334,27.448196482658396L143.5978515625,33.13695318698884L144.61627604166668,18.439452123641978L145.63470052083332,22.75012857913972L146.653125,34.34580988883973L147.67154947916666,35.47477550506593L148.68997395833333,49.48403961658479L149.70839843750002,43.1621206521988L150.72682291666666,18.967939686775217L151.74524739583333,34.203336906433115L152.763671875,30.95356948375703L153.78209635416667,40.04141814708711L154.80052083333334,28.316114616394053L155.81894531249998,63.617123436927805L156.83736979166667,22.127292823791514L157.85579427083334,13.417820405960095L158.87421875,36.59013636112214L159.89264322916668,30.68360514640809L160.91106770833332,29.51730020046235L161.9294921875,52.95472867488862L162.94791666666666,25.957508158683787L163.96634114583333,42.59124524593354L164.98476562500002,64.95622522830965L166.00319010416666,28.49910683631898L167.02161458333333,48.71814079284669L168.0400390625,58.02445240020753L169.05846354166667,45.703162026405344L170.07688802083334,33.23107190132142L171.09531249999998,64.86531920433046L172.11373697916667,39.445529651641856L173.13216145833334,28.353191685676585L174.1505859375,29.092667770385752L175.16901041666668,81.28013439178469L176.18743489583332,25.02327091693879L177.205859375,37.37672097682954L178.22428385416666,15.207813453674328L179.24270833333333,44.65336627960206L180.26113281250002,59.89682800769807L181.27955729166666,47.009022307395945L182.29798177083333,61.11699469089509L183.31640625,29.647479724884043L184.33483072916667,58.232392144203196L185.35325520833334,27.19665594100953L186.37167968749998,36.807746958732615L187.39010416666667,52.473218512535105L188.40852864583334,50.977252197265635L189.426953125,30.79972095489503L190.44537760416668,45.80845959186555L191.46380208333332,33.712680411338816L192.4822265625,25.334180665016184L193.50065104166666,90.66400952339171L194.51907552083333,11.469717097282441L195.53750000000002,77.63241953849794L196.55592447916666,52.83917016983033L197.57434895833333,4.656387639045747L198.5927734375,33.99077482223512L199.61119791666667,66.91311426162721L200.62962239583334,84.71276290416719L201.64804687499998,64.65459294319155L202.66647135416667,55.856214237213145L203.68489583333334,30.08188135623933L204.7033203125,22.159616422653208L205.72174479166668,8.750010800361665L206.74016927083332,66.259298992157L207.75859375,38.18838424682618L208.77701822916666,80.21827466487886L209.79544270833333,93.66525239944457L210.81386718750002,44.39946539402009L211.83229166666666,25.43380684852601L212.85071614583333,49.93043966293336L213.869140625,31.412328553199778L214.88756510416667,62.23868257999421L215.90598958333334,27.76077814102174L216.92441406249998,45.70116229057313L217.94283854166667,109.69838030338286L218.96126302083334,5.206314992904694L219.9796875,33.38160939216615L220.99811197916668,83.39746124744417L222.01653645833332,-3.354029583930938L223.0349609375,49.71214063167573" style="fill: none;" fill="none"></path></g></g></g></g></g></g><g transform="translate(85, 176)" clip-path="url(#clip_1)"><clipPath id="clip_1"><rect width="244" height="24"></rect></clipPath><g><g><line x1="0" y1="0" x2="0" y2="5" style="visibility: inherit;" fill="rgb(0, 0, 0)" stroke="rgb(204, 204, 204)" stroke-width="1px"></line><line x1="20.368489583333332" y1="0" x2="20.368489583333332" y2="5" style="visibility: inherit;" fill="rgb(0, 0, 0)" stroke="rgb(204, 204, 204)" stroke-width="1px"></line><line x1="40.736979166666664" y1="0" x2="40.736979166666664" y2="5" style="visibility: inherit;" fill="rgb(0, 0, 0)" stroke="rgb(204, 204, 204)" stroke-width="1px"></line><line x1="61.10546875" y1="0" x2="61.10546875" y2="5" style="visibility: inherit;" fill="rgb(0, 0, 0)" stroke="rgb(204, 204, 204)" stroke-width="1px"></line><line x1="81.47395833333333" y1="0" x2="81.47395833333333" y2="5" style="visibility: inherit;" fill="rgb(0, 0, 0)" stroke="rgb(204, 204, 204)" stroke-width="1px"></line><line x1="101.84244791666667" y1="0" x2="101.84244791666667" y2="5" style="visibility: inherit;" fill="rgb(0, 0, 0)" stroke="rgb(204, 204, 204)" stroke-width="1px"></line><line x1="122.2109375" y1="0" x2="122.2109375" y2="5" style="visibility: inherit;" fill="rgb(0, 0, 0)" stroke="rgb(204, 204, 204)" stroke-width="1px"></line><line x1="142.57942708333334" y1="0" x2="142.57942708333334" y2="5" style="visibility: inherit;" fill="rgb(0, 0, 0)" stroke="rgb(204, 204, 204)" stroke-width="1px"></line><line x1="162.94791666666666" y1="0" x2="162.94791666666666" y2="5" style="visibility: inherit;" fill="rgb(0, 0, 0)" stroke="rgb(204, 204, 204)" stroke-width="1px"></line><line x1="183.31640625" y1="0" x2="183.31640625" y2="5" style="visibility: inherit;" fill="rgb(0, 0, 0)" stroke="rgb(204, 204, 204)" stroke-width="1px"></line><line x1="203.68489583333334" y1="0" x2="203.68489583333334" y2="5" style="visibility: inherit;" fill="rgb(0, 0, 0)" stroke="rgb(204, 204, 204)" stroke-width="1px"></line><line x1="224.05338541666666" y1="0" x2="224.05338541666666" y2="5" style="visibility: inherit;" fill="rgb(0, 0, 0)" stroke="rgb(204, 204, 204)" stroke-width="1px"></line><line x1="244.421875" y1="0" x2="244.421875" y2="5" style="visibility: inherit;" fill="rgb(0, 0, 0)" stroke="rgb(204, 204, 204)" stroke-width="1px"></line></g><g transform="translate(0, 8)"><text x="0" y="0" dx="0em" dy="0.95em" style="text-anchor: middle; visibility: hidden; font-family: Roboto, sans-serif; font-size: 12px; font-weight: 200;" fill="rgb(33, 33, 33)" stroke="none" stroke-width="1px">-20</text><text x="20.368489583333332" y="0" dx="0em" dy="0.95em" style="text-anchor: middle; visibility: inherit; font-family: Roboto, sans-serif; font-size: 12px; font-weight: 200;" fill="rgb(33, 33, 33)" stroke="none" stroke-width="1px">0</text><text x="40.736979166666664" y="0" dx="0em" dy="0.95em" style="text-anchor: middle; visibility: hidden; font-family: Roboto, sans-serif; font-size: 12px; font-weight: 200;" fill="rgb(33, 33, 33)" stroke="none" stroke-width="1px">20</text><text x="61.10546875" y="0" dx="0em" dy="0.95em" style="text-anchor: middle; visibility: inherit; font-family: Roboto, sans-serif; font-size: 12px; font-weight: 200;" fill="rgb(33, 33, 33)" stroke="none" stroke-width="1px">40</text><text x="81.47395833333333" y="0" dx="0em" dy="0.95em" style="text-anchor: middle; visibility: hidden; font-family: Roboto, sans-serif; font-size: 12px; font-weight: 200;" fill="rgb(33, 33, 33)" stroke="none" stroke-width="1px">60</text><text x="101.84244791666667" y="0" dx="0em" dy="0.95em" style="text-anchor: middle; visibility: inherit; font-family: Roboto, sans-serif; font-size: 12px; font-weight: 200;" fill="rgb(33, 33, 33)" stroke="none" stroke-width="1px">80</text><text x="122.2109375" y="0" dx="0em" dy="0.95em" style="text-anchor: middle; visibility: hidden; font-family: Roboto, sans-serif; font-size: 12px; font-weight: 200;" fill="rgb(33, 33, 33)" stroke="none" stroke-width="1px">100</text><text x="142.57942708333334" y="0" dx="0em" dy="0.95em" style="text-anchor: middle; visibility: inherit; font-family: Roboto, sans-serif; font-size: 12px; font-weight: 200;" fill="rgb(33, 33, 33)" stroke="none" stroke-width="1px">120</text><text x="162.94791666666666" y="0" dx="0em" dy="0.95em" style="text-anchor: middle; visibility: hidden; font-family: Roboto, sans-serif; font-size: 12px; font-weight: 200;" fill="rgb(33, 33, 33)" stroke="none" stroke-width="1px">140</text><text x="183.31640625" y="0" dx="0em" dy="0.95em" style="text-anchor: middle; visibility: inherit; font-family: Roboto, sans-serif; font-size: 12px; font-weight: 200;" fill="rgb(33, 33, 33)" stroke="none" stroke-width="1px">160</text><text x="203.68489583333334" y="0" dx="0em" dy="0.95em" style="text-anchor: middle; visibility: hidden; font-family: Roboto, sans-serif; font-size: 12px; font-weight: 200;" fill="rgb(33, 33, 33)" stroke="none" stroke-width="1px">180</text><text x="224.05338541666666" y="0" dx="0em" dy="0.95em" style="text-anchor: middle; visibility: inherit; font-family: Roboto, sans-serif; font-size: 12px; font-weight: 200;" fill="rgb(33, 33, 33)" stroke="none" stroke-width="1px">200</text><text x="244.421875" y="0" dx="0em" dy="0.95em" style="text-anchor: middle; visibility: hidden; font-family: Roboto, sans-serif; font-size: 12px; font-weight: 200;" fill="rgb(33, 33, 33)" stroke="none" stroke-width="1px">220</text></g><line x1="0" y1="0" x2="244.421875" y2="0" fill="rgb(0, 0, 0)" stroke="rgb(204, 204, 204)" stroke-width="1px"></line></g></g></g></g></svg>