<svg viewBox="0 0 330 200" xmlns="http://www.w3.org/2000/svg"><g><g><g><g><g><line x1="61.953125" y1="177" x2="56.953125" y2="177" style="visibility: inherit;" fill="rgb(0, 0, 0)" stroke="rgb(204, 204, 204)" stroke-width="1px"></line><line x1="61.953125" y1="163.3846153846154" x2="56.953125" y2="163.3846153846154" style="visibility: inherit;" fill="rgb(0, 0, 0)" stroke="rgb(204, 204, 204)" stroke-width="1px"></line><line x1="61.953125" y1="149.76923076923077" x2="56.953125" y2="149.76923076923077" style="visibility: inherit;" fill="rgb(0, 0, 0)" stroke="rgb(204, 204, 204)" stroke-width="1px"></line><line x1="61.953125" y1="136.15384615384613" x2="56.953125" y2="136.15384615384613" style="visibility: inherit;" fill="rgb(0, 0, 0)" stroke="rgb(204, 204, 204)" stroke-width="1px"></line><line x1="61.953125" y1="122.53846153846153" x2="56.953125" y2="122.53846153846153" style="visibility: inherit;" fill="rgb(0, 0, 0)" stroke="rgb(204, 204, 204)" stroke-width="1px"></line><line x1="61.953125" y1="108.92307692307693" x2="56.953125" y2="108.92307692307693" style="visibility: inherit;" fill="rgb(0, 0, 0)" stroke="rgb(204, 204, 204)" stroke-width="1px"></line><line x1="61.953125" y1="95.3076923076923" x2="56.953125" y2="95.3076923076923" style="visibility: inherit;" fill="rgb(0, 0, 0)" stroke="rgb(204, 204, 204)" stroke-width="1px"></line><line x1="61.953125" y1="81.6923076923077" x2="56.953125" y2="81.6923076923077" style="visibility: inherit;" fill="rgb(0, 0, 0)" stroke="rgb(204, 204, 204)" stroke-width="1px"></line><line x1="61.953125" y1="68.07692307692307" x2="56.953125" y2="68.07692307692307" style="visibility: inherit;" fill="rgb(0, 0, 0)" stroke="rgb(204, 204, 204)" stroke-width="1px"></line><line x1="61.953125" y1="54.46153846153847" x2="56.953125" y2="54.46153846153847" style="visibility: inherit;" fill="rgb(0, 0, 0)" stroke="rgb(204, 204, 204)" stroke-width="1px"></line><line x1="61.953125" y1="40.84615384615384" x2="56.953125" y2="40.84615384615384" style="visibility: inherit;" fill="rgb(0, 0, 0)" stroke="rgb(204, 204, 204)" stroke-width="1px"></line><line x1="61.953125" y1="27.230769230769234" x2="56.953125" y2="27.230769230769234" style="visibility: inherit;" fill="rgb(0, 0, 0)" stroke="rgb(204, 204, 204)" stroke-width="1px"></line><line x1="61.953125" y1="13.615384615384606" x2="56.953125" y2="13.615384615384606" style="visibility: inherit;" fill="rgb(0, 0, 0)" stroke="rgb(204, 204, 204)" stroke-width="1px"></line><line x1="61.953125" y1="0" x2="56.953125" y2="0" style="visibility: inherit;" fill="rgb(0, 0, 0)" stroke="rgb(204, 204, 204)" stroke-width="1px"></line></g><g transform="translate(51.953125, 0)"><text x="0" y="177" dx="0em" dy="0.3em" style="text-anchor: end; visibility: hidden; font-family: Roboto, sans-serif; font-size: 12px; font-weight: 200;" fill="rgb(33, 33, 33)" stroke="none" stroke-width="1px">0.766</text><text x="0" y="163.3846153846154" dx="0em" dy="0.3em" style="text-anchor: end; visibility: inherit; font-family: Roboto, sans-serif; font-size: 12px; font-weight: 200;" fill="rgb(33, 33, 33)" stroke="none" stroke-width="1px">0.768</text><text x="0" y="149.76923076923077" dx="0em" dy="0.3em" style="text-anchor: end; visibility: hidden; font-family: Roboto, sans-serif; font-size: 12px; font-weight: 200;" fill="rgb(33, 33, 33)" stroke="none" stroke-width="1px">0.77</text><text x="0" y="136.15384615384613" dx="0em" dy="0.3em" style="text-anchor: end; visibility: inherit; font-family: Roboto, sans-serif; font-size: 12px; font-weight: 200;" fill="rgb(33, 33, 33)" stroke="none" stroke-width="1px">0.772</text><text x="0" y="122.53846153846153" dx="0em" dy="0.3em" style="text-anchor: end; visibility: hidden; font-family: Roboto, sans-serif; font-size: 12px; font-weight: 200;" fill="rgb(33, 33, 33)" stroke="none" stroke-width="1px">0.774</text><text x="0" y="108.92307692307693" dx="0em" dy="0.3em" style="text-anchor: end; visibility: inherit; font-family: Roboto, sans-serif; font-size: 12px; font-weight: 200;" fill="rgb(33, 33, 33)" stroke="none" stroke-width="1px">0.776</text><text x="0" y="95.3076923076923" dx="0em" dy="0.3em" style="text-anchor: end; visibility: hidden; font-family: Roboto, sans-serif; font-size: 12px; font-weight: 200;" fill="rgb(33, 33, 33)" stroke="none" stroke-width="1px">0.778</text><text x="0" y="81.6923076923077" dx="0em" dy="0.3em" style="text-anchor: end; visibility: inherit; font-family: Roboto, sans-serif; font-size: 12px; font-weight: 200;" fill="rgb(33, 33, 33)" stroke="none" stroke-width="1px">0.78</text><text x="0" y="68.07692307692307" dx="0em" dy="0.3em" style="text-anchor: end; visibility: hidden; font-family: Roboto, sans-serif; font-size: 12px; font-weight: 200;" fill="rgb(33, 33, 33)" stroke="none" stroke-width="1px">0.782</text><text x="0" y="54.46153846153847" dx="0em" dy="0.3em" style="text-anchor: end; visibility: inherit; font-family: Roboto, sans-serif; font-size: 12px; font-weight: 200;" fill="rgb(33, 33, 33)" stroke="none" stroke-width="1px">0.784</text><text x="0" y="40.84615384615384" dx="0em" dy="0.3em" style="text-anchor: end; visibility: hidden; font-family: Roboto, sans-serif; font-size: 12px; font-weight: 200;" fill="rgb(33, 33, 33)" stroke="none" stroke-width="1px">0.786</text><text x="0" y="27.230769230769234" dx="0em" dy="0.3em" style="text-anchor: end; visibility: inherit; font-family: Roboto, sans-serif; font-size: 12px; font-weight: 200;" fill="rgb(33, 33, 33)" stroke="none" stroke-width="1px">0.788</text><text x="0" y="13.615384615384606" dx="0em" dy="0.3em" style="text-anchor: end; visibility: hidden; font-family: Roboto, sans-serif; font-size: 12px; font-weight: 200;" fill="rgb(33, 33, 33)" stroke="none" stroke-width="1px">0.79</text><text x="0" y="0" dx="0em" dy="0.3em" style="text-anchor: end; visibility: hidden; font-family: Roboto, sans-serif; font-size: 12px; font-weight: 200;" fill="rgb(33, 33, 33)" stroke="none" stroke-width="1px">0.792</text></g><line x1="61.953125" y1="0" x2="61.953125" y2="177" fill="rgb(0, 0, 0)" stroke="rgb(204, 204, 204)" stroke-width="1px"></line></g></g><g transform="translate(61, 0)" clip-path="url(#clip_0)"><clipPath id="clip_0"><rect width="268" height="177"></rect></clipPath><g><g><g><line x1="0" y1="0" x2="0" y2="177" fill="rgb(0, 0, 0)" stroke="rgb(66, 66, 66)" stroke-width="1px" opacity="0.25"></line><line x1="22.337239583333332" y1="0" x2="22.337239583333332" y2="177" fill="rgb(0, 0, 0)" stroke="rgb(66, 66, 66)" stroke-width="1px" opacity="0.25"></line><line x1="44.674479166666664" y1="0" x2="44.674479166666664" y2="177" fill="rgb(0, 0, 0)" stroke="rgb(66, 66, 66)" stroke-width="1px" opacity="0.25"></line><line x1="67.01171875" y1="0" x2="67.01171875" y2="177" fill="rgb(0, 0, 0)" stroke="rgb(66, 66, 66)" stroke-width="1px" opacity="0.25"></line><line x1="89.34895833333333" y1="0" x2="89.34895833333333" y2="177" fill="rgb(0, 0, 0)" stroke="rgb(66, 66, 66)" stroke-width="1px" opacity="0.25"></line><line x1="111.68619791666667" y1="0" x2="111.68619791666667" y2="177" fill="rgb(0, 0, 0)" stroke="rgb(66, 66, 66)" stroke-width="1px" opacity="0.25"></line><line x1="134.0234375" y1="0" x2="134.0234375" y2="177" fill="rgb(0, 0, 0)" stroke="rgb(66, 66, 66)" stroke-width="1px" opacity="0.25"></line><line x1="156.36067708333334" y1="0" x2="156.36067708333334" y2="177" fill="rgb(0, 0, 0)" stroke="rgb(66, 66, 66)" stroke-width="1px" opacity="0.25"></line><line x1="178.69791666666666" y1="0" x2="178.69791666666666" y2="177" fill="rgb(0, 0, 0)" stroke="rgb(66, 66, 66)" stroke-width="1px" opacity="0.25"></line><line x1="201.03515625" y1="0" x2="201.03515625" y2="177" fill="rgb(0, 0, 0)" stroke="rgb(66, 66, 66)" stroke-width="1px" opacity="0.25"></line><line x1="223.37239583333334" y1="0" x2="223.37239583333334" y2="177" fill="rgb(0, 0, 0)" stroke="rgb(66, 66, 66)" stroke-width="1px" opacity="0.25"></line><line x1="245.70963541666666" y1="0" x2="245.70963541666666" y2="177" fill="rgb(0, 0, 0)" stroke="rgb(66, 66, 66)" stroke-width="1px" opacity="0.25"></line><line x1="268.046875" y1="0" x2="268.046875" y2="177" fill="rgb(0, 0, 0)" stroke="rgb(66, 66, 66)" stroke-width="1px" opacity="0.25"></line></g><g><line x1="0" y1="177" x2="268.046875" y2="177" fill="rgb(0, 0, 0)" stroke="rgb(66, 66, 66)" stroke-width="1px" opacity="0.25"></line><line x1="0" y1="163.3846153846154" x2="268.046875" y2="163.3846153846154" fill="rgb(0, 0, 0)" stroke="rgb(66, 66, 66)" stroke-width="1px" opacity="0.25"></line><line x1="0" y1="149.76923076923077" x2="268.046875" y2="149.76923076923077" fill="rgb(0, 0, 0)" stroke="rgb(66, 66, 66)" stroke-width="1px" opacity="0.25"></line><line x1="0" y1="136.15384615384613" x2="268.046875" y2="136.15384615384613" fill="rgb(0, 0, 0)" stroke="rgb(66, 66, 66)" stroke-width="1px" opacity="0.25"></line><line x1="0" y1="122.53846153846153" x2="268.046875" y2="122.53846153846153" fill="rgb(0, 0, 0)" stroke="rgb(66, 66, 66)" stroke-width="1px" opacity="0.25"></line><line x1="0" y1="108.92307692307693" x2="268.046875" y2="108.92307692307693" fill="rgb(0, 0, 0)" stroke="rgb(66, 66, 66)" stroke-width="1px" opacity="0.25"></line><line x1="0" y1="95.3076923076923" x2="268.046875" y2="95.3076923076923" fill="rgb(0, 0, 0)" stroke="rgb(66, 66, 66)" stroke-width="1px" opacity="0.25"></line><line x1="0" y1="81.6923076923077" x2="268.046875" y2="81.6923076923077" fill="rgb(0, 0, 0)" stroke="rgb(66, 66, 66)" stroke-width="1px" opacity="0.25"></line><line x1="0" y1="68.07692307692307" x2="268.046875" y2="68.07692307692307" fill="rgb(0, 0, 0)" stroke="rgb(66, 66, 66)" stroke-width="1px" opacity="0.25"></line><line x1="0" y1="54.46153846153847" x2="268.046875" y2="54.46153846153847" fill="rgb(0, 0, 0)" stroke="rgb(66, 66, 66)" stroke-width="1px" opacity="0.25"></line><line x1="0" y1="40.84615384615384" x2="268.046875" y2="40.84615384615384" fill="rgb(0, 0, 0)" stroke="rgb(66, 66, 66)" stroke-width="1px" opacity="0.25"></line><line x1="0" y1="27.230769230769234" x2="268.046875" y2="27.230769230769234" fill="rgb(0, 0, 0)" stroke="rgb(66, 66, 66)" stroke-width="1px" opacity="0.25"></line><line x1="0" y1="13.615384615384606" x2="268.046875" y2="13.615384615384606" fill="rgb(0, 0, 0)" stroke="rgb(66, 66, 66)" stroke-width="1px" opacity="0.25"></line><line x1="0" y1="0" x2="268.046875" y2="0" fill="rgb(0, 0, 0)" stroke="rgb(66, 66, 66)" stroke-width="1px" opacity="0.25"></line></g></g></g><g><g><line x1="0" y1="5391.692307692303" x2="268.046875" y2="5391.692307692303" fill="rgb(0, 0, 0)" stroke="rgb(153, 153, 153)" stroke-width="1.5px"></line></g></g><g><g><line x1="22.337239583333332" y1="0" x2="22.337239583333332" y2="177" fill="rgb(0, 0, 0)" stroke="rgb(153, 153, 153)" stroke-width="1.5px"></line></g></g><g><g><g><g><g><path stroke="rgb(255, 112, 67)" stroke-width="2px" d="M23.4541015625,275.4268700549236L24.570963541666664,174.74421102996914L25.687825520833336,136.5657841556481L26.8046875,110.75453233927574L27.921549479166668,129.07273305670742L29.038411458333336,125.04591728617211L30.1552734375,144.71820878164482L31.272135416666668,141.31444224102736L32.388997395833336,140.10258154473834L33.505859375,136.23231113425373L34.62272135416667,140.0259785748527L35.739583333333336,143.55511914258136L36.8564453125,156.03741062698165L37.973307291666664,153.11363195798734L39.090169270833336,167.35566930596661L40.20703125,164.50642540322892L41.32389322916667,159.57683163341244L42.44075520833333,162.481182985083L43.5576171875,160.61917425653655L44.674479166666664,153.87077417172188L45.791341145833336,143.81651492255662L46.908203125,161.160643089804L48.025065104166664,176.2347088492752L49.14192708333333,163.14038629903945L50.2587890625,146.14293721651458L51.37565104166667,157.00413742822312L52.492513020833336,151.53098639459333L53.609375,156.01873401053845L54.726236979166664,152.69591988419623L55.843098958333336,161.75297575045687L56.9599609375,153.47574942399234L58.07682291666667,163.4065329260274L59.19368489583333,138.53377948961912L60.310546875,159.17603846782077L61.427408854166664,137.90097961174035L62.544270833333336,151.89453379850374L63.6611328125,148.05767209344503L64.77799479166667,149.2394970091108L65.89485677083333,137.23532835481325L67.01171875,133.96555080788423L68.12858072916666,124.98142724343106L69.24544270833334,123.81209811507118L70.3623046875,138.83084514777212L71.47916666666667,142.6878394788965L72.59602864583333,147.9914254236962L73.712890625,143.57382797515223L74.82975260416667,146.21126521148918L75.94661458333333,147.0287697951455L77.0634765625,138.50695672177696L78.18033854166667,146.0139676521127L79.29720052083333,122.96817104841215L80.4140625,129.38391323215598L81.53092447916666,116.07431563378206L82.64778645833334,103.64537467970948L83.7646484375,114.5218385565265L84.88151041666666,114.08453997191941L85.99837239583334,115.54895598100815L87.115234375,107.76733588589673L88.23209635416667,109.41101014447956L89.34895833333333,117.79700021827492L90.4658203125,107.2776993419097L91.58268229166667,130.4167490407589L92.69954427083333,128.4863449264583L93.81640625,127.74864257059295L94.93326822916667,124.71720803557092L96.05013020833333,110.11350588712271L97.1669921875,117.49768769065832L98.28385416666666,107.01728242505635L99.40071614583334,110.78467112334786L100.517578125,115.93662194480207L101.63444010416666,111.94791605147336L102.75130208333334,110.10329366598809L103.8681640625,103.3012936754261L104.98502604166667,92.17543813798075L106.10188802083333,89.87282783241089L107.21875,88.07266923274628L108.33561197916667,96.01560222658709L109.45247395833333,92.97012564136051L110.5693359375,98.56177755672894L111.68619791666667,78.62053446505128L112.80305989583333,87.22849406230314L113.919921875,99.89011554285304L115.03678385416666,86.47420359425264L116.15364583333334,95.45482675572674L117.2705078125,83.52899126475906L118.38736979166666,85.0430112286054L119.50423177083334,67.91169691290936L120.62109375,43.546356473833235L121.73795572916667,46.31667252541036L122.85481770833333,35.63971858670469L123.9716796875,60.618563581820716L125.08854166666667,86.74523317085325L126.20540364583333,76.66960476474834L127.322265625,72.13645166171462L128.43912760416669,82.21389894584867L129.55598958333334,77.07718155553762L130.6728515625,64.98851607901356L131.78971354166666,58.678975695193756L132.90657552083334,82.92011562676005L134.0234375,73.74153291077867L135.14029947916666,89.42353464162795L136.25716145833331,76.6744430564709L137.3740234375,62.37328030942632L138.49088541666669,50.73745856176096L139.60774739583334,58.019433118460306L140.724609375,66.05191015043007L141.84147135416666,72.6835655546635L142.95833333333334,72.26157649064946L144.0751953125,89.3844318005504L145.19205729166666,89.12565212877769L146.30891927083331,86.34683728521503L147.42578125,75.30966795956608L148.54264322916669,69.60067366415778L149.65950520833334,56.61160087636263L150.7763671875,57.31579425548795L151.89322916666666,61.091107314366035L153.01009114583331,62.24594589801911L154.126953125,58.85728895000275L155.24381510416669,65.1651045814438L156.36067708333334,73.68172234552974L157.4775390625,57.82733826882711L158.59440104166666,52.786943355711976L159.71126302083334,42.44082874489168L160.828125,44.2691929852143L161.94498697916666,54.76822893939214L163.06184895833331,65.29204167887958L164.1787109375,55.74558836751288L165.29557291666669,58.41537168435419L166.41243489583334,53.01933084476773L167.529296875,40.87862382353869L168.64615885416666,41.829546881767435L169.76302083333331,29.917963770246615L170.8798828125,41.61659957967376L171.99674479166669,30.509706897931743L173.11360677083334,16.78176339792163L174.23046875,20.415395269142458L175.34733072916666,23.658692006034027L176.46419270833334,27.406451519127952L177.5810546875,45.058951070003324L178.69791666666666,60.228024246656375L179.81477864583331,45.00485021658757L180.931640625,67.33127408405652L182.04850260416669,59.34450586912608L183.16536458333334,57.48015723393926L184.2822265625,62.43170616762709L185.39908854166666,57.18335675211099L186.51595052083331,45.183040847754654L187.6328125,53.52092389120071L188.74967447916669,47.350855670568805L189.86653645833334,22.93376514125662L190.9833984375,18.477591433210367L192.10026041666666,29.11184742519902L193.21712239583334,17.31503751466134L194.333984375,16.96202259506836L195.45084635416666,14.525295131114165L196.56770833333331,10.157133327318931L197.6845703125,24.784873187685317L198.80143229166669,20.96495299439575L199.91829427083334,44.18279206923007L201.03515625,40.12229932190249L202.15201822916666,38.144361557839794L203.26888020833331,50.17661431430068L204.3857421875,24.763449070534925L205.50260416666669,33.855749431475864L206.61946614583334,31.81298546158038L207.736328125,43.23144744273152L208.85319010416666,31.025451588479616L209.97005208333334,24.532059663168827L211.0869140625,23.742762561818L212.20377604166666,25.580775302664552L213.32063802083331,7.880359667366221L214.4375,26.463058452960148L215.55436197916669,47.82347606122617L216.67122395833334,33.29098542493206L217.7880859375,26.04167720331655L218.90494791666666,21.473463350305348L220.02180989583331,42.155694160965794L221.138671875,43.84588555204833L222.25553385416669,51.65356540322444L223.37239583333334,31.84848810861724L224.4892578125,17.966618309201202L225.60611979166666,5.093033822094802L226.72298177083334,16.767452273566406L227.83984375,22.497336055654774L228.95670572916666,18.34249655538548L230.07356770833331,21.014883687742845L231.1904296875,30.63535893414692L232.30729166666669,12.306361998918181L233.42415364583334,11.953124621988955L234.541015625,-1.2320988575643355L235.65787760416666,7.154441233780198L236.77473958333331,7.738151344518908L237.8916015625,8.499016733682277L239.00846354166669,26.653928468425065L240.12532552083334,21.541355789046207L241.2421875,17.504995534256256L242.35904947916666,26.918356509514442L243.47591145833334,0.8747558625663153L244.5927734375,-5.790540348485447" style="fill: none;" fill="none"></path></g></g></g></g><g opacity="0.2"><g><g><g><path stroke="rgb(255, 112, 67)" stroke-width="2px" d="M22.337239583333332,456.6151310480556L23.4541015625,166.71391345904436L24.570963541666664,78.08885836601274L25.687825520833336,91.66795415144718L26.8046875,77.05536196782057L27.921549479166668,154.41339920117318L29.038411458333336,119.28750630525457L30.1552734375,173.4005986360404L31.272135416666668,136.29454774122985L32.388997395833336,138.30310964584365L33.505859375,130.4620085862968L34.62272135416667,145.6958347650676L35.739583333333336,148.8373067378999L36.8564453125,174.73639374512902L37.973307291666664,148.73140074656573L39.090169270833336,188.70868073976965L40.20703125,160.23376525365398L41.32389322916667,152.183692602011L42.44075520833333,166.83726756389333L43.5576171875,157.82633135868963L44.674479166666664,143.7485441427966L45.791341145833336,128.73545688849245L46.908203125,187.17649291111883L48.025065104166664,198.8456289218023L49.14192708333333,143.49899554252636L50.2587890625,120.64683607908411L51.37565104166667,173.29590995495147L52.492513020833336,143.3212682467242L53.609375,162.75035130060647L54.726236979166664,147.7117005311527L55.843098958333336,175.33855654643142L56.9599609375,141.05991158118627L58.07682291666667,178.3027069935433L59.19368489583333,101.2246511165914L60.310546875,190.13942604798547L61.427408854166664,105.98839187622086L62.544270833333336,172.88486486214867L63.6611328125,142.30237957147463L64.77799479166667,151.01223437602715L65.89485677083333,119.22907541348398L67.01171875,129.06088449404803L68.12858072916666,111.50524190756006L69.24544270833334,122.05810442337639L70.3623046875,161.35896569031945L71.47916666666667,148.47333097457897L72.59602864583333,155.94680434006924L73.712890625,136.94743180274978L74.82975260416667,150.16742106584414L75.94661458333333,148.25502667060277L77.0634765625,125.72423711189872L78.18033854166667,157.274484047523L79.29720052083333,88.3994761430302L80.4140625,139.00752650774456L81.53092447916666,96.1099192362567L82.64778645833334,85.00196324861983L83.7646484375,130.83653437174297L84.88151041666666,113.42859209500841L85.99837239583334,117.74557999464197L87.115234375,96.0949057432323L88.23209635416667,111.8765215323523L89.34895833333333,130.37598532896791L90.4658203125,91.49874802736153L91.58268229166667,165.1253235890316L92.69954427083333,125.5907387550062L93.81640625,126.64208903679496L94.93326822916667,120.17005623303942L96.05013020833333,88.20795266444884L97.1669921875,128.57396039595986L98.28385416666666,91.29667452665494L99.40071614583334,116.43575417078473L100.517578125,123.66454817698565L101.63444010416666,105.96485721147994L102.75130208333334,107.33636008776168L103.8681640625,93.09829368958123L104.98502604166667,75.48665483181311L106.10188802083333,86.41891237405649L107.21875,85.37243133324861L108.33561197916667,107.93000171734752L109.45247395833333,88.40191076352065L110.5693359375,106.94925542978157L111.68619791666667,48.70866982753482L112.80305989583333,100.14043345818169L113.919921875,118.8825477636779L115.03678385416666,66.3503356713517L116.15364583333334,108.92576149793787L117.2705078125,65.64023802830643L118.38736979166666,87.31404117437526L119.50423177083334,42.2147254393653L120.62109375,6.998345815218657L121.73795572916667,50.47214660277755L122.85481770833333,19.624287678645445L123.9716796875,98.08683107449477L125.08854166666667,125.9352375544036L126.20540364583333,61.55616215559173L127.322265625,65.33672200716478L128.43912760416669,97.33006987204934L129.55598958333334,69.37210547007066L130.6728515625,46.85551786422751L131.78971354166666,49.21466511946479L132.90657552083334,119.2818255241102L134.0234375,59.97365883680511L135.14029947916666,112.9465372379011L136.25716145833331,57.55080567873462L137.3740234375,40.92153618885943L138.49088541666669,33.28372594026441L139.60774739583334,68.94239495350784L140.724609375,78.10062569838323L141.84147135416666,82.6310486610121L142.95833333333334,71.62859289462769L144.0751953125,115.06871476540215L145.19205729166666,88.73748262111975L146.30891927083331,82.17861501987181L147.42578125,58.75391397109418L148.54264322916669,61.037182221046066L149.65950520833334,37.12799169467067L150.7763671875,58.372084324176704L151.89322916666666,66.75407690268315L153.01009114583331,63.978203773498734L154.126953125,53.774303527978965L155.24381510416669,74.62682802860571L156.36067708333334,86.45664899165831L157.4775390625,34.04576215377244L158.59440104166666,45.226350986040764L159.71126302083334,26.921656828660453L160.828125,47.01173934569747L161.94498697916666,70.51678287065965L163.06184895833331,81.07776078811077L164.1787109375,41.42590840046244L165.29557291666669,62.42004665961652L166.41243489583334,44.92526958538958L167.529296875,22.667563291696634L168.64615885416666,43.25593146911056L169.76302083333331,12.050589102965386L170.8798828125,59.16455329381523L171.99674479166669,13.849367875319512L173.11360677083334,-3.8101518520939655L174.23046875,25.865843075972567L175.34733072916666,28.5236371113706L176.46419270833334,33.028090788768104L177.5810546875,71.53770039631789L178.69791666666666,82.9816340116356L179.81477864583331,22.170089171483202L180.931640625,100.82090988525994L182.04850260416669,47.36435354672966L183.16536458333334,54.683634281158646L184.2822265625,69.85902956815885L185.39908854166666,49.310832628837204L186.51595052083331,27.18256699121938L187.6328125,66.02774845636827L188.74967447916669,38.095753339620956L189.86653645833334,-13.691870652712042L190.9833984375,11.79333087114212L192.10026041666666,45.06323141318122L193.21712239583334,-0.3801773511444051L194.333984375,16.432500215677347L195.45084635416666,10.870203935183257L196.56770833333331,3.6048906216257066L197.6845703125,46.72648297823413L198.80143229166669,15.235072704462137L199.91829427083334,79.00955068148119L201.03515625,34.031560200911535L202.15201822916666,35.177454911745734L203.26888020833331,68.22499344899124L204.3857421875,-13.356298795112934L205.50260416666669,47.49419997288653L206.61946614583334,28.74883950673639L207.736328125,60.359140414458246L208.85319010416666,12.716457807100982L209.97005208333334,14.791971775201883L211.0869140625,22.558816909790274L212.20377604166666,28.337794413933615L213.32063802083331,-18.670263785582062L214.4375,54.33710663135257L215.55436197916669,79.86410247362596L216.67122395833334,11.492249470490917L217.7880859375,15.167714870893285L218.90494791666666,14.621142570789294L220.02180989583331,73.17904037695683L221.138671875,46.38117263867327L222.25553385416669,63.36508517998936L223.37239583333334,2.1408721667072195L224.4892578125,-2.8561863899228204L225.60611979166666,-14.217342908565545L226.72298177083334,34.279079950773024L227.83984375,31.092161728785804L228.95670572916666,12.110237304981188L230.07356770833331,25.023464386279997L231.1904296875,45.06607180375342L232.30729166666669,-15.187133403924516L233.42415364583334,11.423268556595085L234.541015625,-21.009934076895792L235.65787760416666,19.73425137079702L236.77473958333331,8.613716510626224L237.8916015625,9.640314817428825L239.00846354166669,53.88629607053924L240.12532552083334,13.872496769978683L241.2421875,11.450455152071685L242.35904947916666,41.03839797240058L243.47591145833334,-38.19064510785588" style="fill: none;" fill="none"></path></g></g></g></g></g></g><g transform="translate(61, 177)" clip-path="url(#clip_1)"><clipPath id="clip_1"><rect width="268" height="23"></rect></clipPath><g><g><line x1="0" y1="0" x2="0" y2="5" style="visibility: inherit;" fill="rgb(0, 0, 0)" stroke="rgb(204, 204, 204)" stroke-width="1px"></line><line x1="22.337239583333332" y1="0" x2="22.337239583333332" y2="5" style="visibility: inherit;" fill="rgb(0, 0, 0)" stroke="rgb(204, 204, 204)" stroke-width="1px"></line><line x1="44.674479166666664" y1="0" x2="44.674479166666664" y2="5" style="visibility: inherit;" fill="rgb(0, 0, 0)" stroke="rgb(204, 204, 204)" stroke-width="1px"></line><line x1="67.01171875" y1="0" x2="67.01171875" y2="5" style="visibility: inherit;" fill="rgb(0, 0, 0)" stroke="rgb(204, 204, 204)" stroke-width="1px"></line><line x1="89.34895833333333" y1="0" x2="89.34895833333333" y2="5" style="visibility: inherit;" fill="rgb(0, 0, 0)" stroke="rgb(204, 204, 204)" stroke-width="1px"></line><line x1="111.68619791666667" y1="0" x2="111.68619791666667" y2="5" style="visibility: inherit;" fill="rgb(0, 0, 0)" stroke="rgb(204, 204, 204)" stroke-width="1px"></line><line x1="134.0234375" y1="0" x2="134.0234375" y2="5" style="visibility: inherit;" fill="rgb(0, 0, 0)" stroke="rgb(204, 204, 204)" stroke-width="1px"></line><line x1="156.36067708333334" y1="0" x2="156.36067708333334" y2="5" style="visibility: inherit;" fill="rgb(0, 0, 0)" stroke="rgb(204, 204, 204)" stroke-width="1px"></line><line x1="178.69791666666666" y1="0" x2="178.69791666666666" y2="5" style="visibility: inherit;" fill="rgb(0, 0, 0)" stroke="rgb(204, 204, 204)" stroke-width="1px"></line><line x1="201.03515625" y1="0" x2="201.03515625" y2="5" style="visibility: inherit;" fill="rgb(0, 0, 0)" stroke="rgb(204, 204, 204)" stroke-width="1px"></line><line x1="223.37239583333334" y1="0" x2="223.37239583333334" y2="5" style="visibility: inherit;" fill="rgb(0, 0, 0)" stroke="rgb(204, 204, 204)" stroke-width="1px"></line><line x1="245.70963541666666" y1="0" x2="245.70963541666666" y2="5" style="visibility: inherit;" fill="rgb(0, 0, 0)" stroke="rgb(204, 204, 204)" stroke-width="1px"></line><line x1="268.046875" y1="0" x2="268.046875" y2="5" style="visibility: inherit;" fill="rgb(0, 0, 0)" stroke="rgb(204, 204, 204)" stroke-width="1px"></line></g><g transform="translate(0, 8)"><text x="0" y="0" dx="0em" dy="0.95em" style="text-anchor: middle; visibility: hidden; font-family: Roboto, sans-serif; font-size: 12px; font-weight: 200;" fill="rgb(33, 33, 33)" stroke="none" stroke-width="1px">-20</text><text x="22.337239583333332" y="0" dx="0em" dy="0.95em" style="text-anchor: middle; visibility: inherit; font-family: Roboto, sans-serif; font-size: 12px; font-weight: 200;" fill="rgb(33, 33, 33)" stroke="none" stroke-width="1px">0</text><text x="44.674479166666664" y="0" dx="0em" dy="0.95em" style="text-anchor: middle; visibility: hidden; font-family: Roboto, sans-serif; font-size: 12px; font-weight: 200;" fill="rgb(33, 33, 33)" stroke="none" stroke-width="1px">20</text><text x="67.01171875" y="0" dx="0em" dy="0.95em" style="text-anchor: middle; visibility: inherit; font-family: Roboto, sans-serif; font-size: 12px; font-weight: 200;" fill="rgb(33, 33, 33)" stroke="none" stroke-width="1px">40</text><text x="89.34895833333333" y="0" dx="0em" dy="0.95em" style="text-anchor: middle; visibility: hidden; font-family: Roboto, sans-serif; font-size: 12px; font-weight: 200;" fill="rgb(33, 33, 33)" stroke="none" stroke-width="1px">60</text><text x="111.68619791666667" y="0" dx="0em" dy="0.95em" style="text-anchor: middle; visibility: inherit; font-family: Roboto, sans-serif; font-size: 12px; font-weight: 200;" fill="rgb(33, 33, 33)" stroke="none" stroke-width="1px">80</text><text x="134.0234375" y="0" dx="0em" dy="0.95em" style="text-anchor: middle; visibility: hidden; font-family: Roboto, sans-serif; font-size: 12px; font-weight: 200;" fill="rgb(33, 33, 33)" stroke="none" stroke-width="1px">100</text><text x="156.36067708333334" y="0" dx="0em" dy="0.95em" style="text-anchor: middle; visibility: inherit; font-family: Roboto, sans-serif; font-size: 12px; font-weight: 200;" fill="rgb(33, 33, 33)" stroke="none" stroke-width="1px">120</text><text x="178.69791666666666" y="0" dx="0em" dy="0.95em" style="text-anchor: middle; visibility: hidden; font-family: Roboto, sans-serif; font-size: 12px; font-weight: 200;" fill="rgb(33, 33, 33)" stroke="none" stroke-width="1px">140</text><text x="201.03515625" y="0" dx="0em" dy="0.95em" style="text-anchor: middle; visibility: inherit; font-family: Roboto, sans-serif; font-size: 12px; font-weight: 200;" fill="rgb(33, 33, 33)" stroke="none" stroke-width="1px">160</text><text x="223.37239583333334" y="0" dx="0em" dy="0.95em" style="text-anchor: middle; visibility: hidden; font-family: Roboto, sans-serif; font-size: 12px; font-weight: 200;" fill="rgb(33, 33, 33)" stroke="none" stroke-width="1px">180</text><text x="245.70963541666666" y="0" dx="0em" dy="0.95em" style="text-anchor: middle; visibility: inherit; font-family: Roboto, sans-serif; font-size: 12px; font-weight: 200;" fill="rgb(33, 33, 33)" stroke="none" stroke-width="1px">200</text><text x="268.046875" y="0" dx="0em" dy="0.95em" style="text-anchor: middle; visibility: hidden; font-family: Roboto, sans-serif; font-size: 12px; font-weight: 200;" fill="rgb(33, 33, 33)" stroke="none" stroke-width="1px">220</text></g><line x1="0" y1="0" x2="268.046875" y2="0" fill="rgb(0, 0, 0)" stroke="rgb(204, 204, 204)" stroke-width="1px"></line></g></g></g></g></svg>